<svg xmlns="http://www.w3.org/2000/svg" fill="none" width="1" height="1" viewBox="0 0 56.69 56.69"><defs><style>.cls-1{fill:none;}.cls-2{clip-path:url(#clip-path);}.cls-3{fill:#41A0C9;fill-rule:evenodd;}</style><clipPath id="clip-path"><rect class="cls-1" x="1.72" y="21.07" width="53.26" height="31.96"/></clipPath></defs><g class="cls-2"><path class="cls-3" d="M28.35,21.07Q17.7,21.07,15,31.72q4-5.32,9.32-4c2,.5,3.48,2,5.08,3.6C32,34,35.06,37.05,41.66,37.05q10.65,0,13.32-10.66-4,5.34-9.32,4c-2-.51-3.48-2-5.08-3.6C38,24.14,35,21.07,28.35,21.07ZM15,37.05Q4.38,37.05,1.72,47.7q4-5.33,9.32-4c2,.51,3.47,2,5.07,3.61C18.72,50,21.75,53,28.35,53Q39,53,41.66,42.37q-4,5.33-9.32,4c-2-.51-3.47-2-5.08-3.61C24.65,40.11,21.63,37.05,15,37.05Z"/></g></svg>